<svg width="2669" height="2149" viewBox="0 0 2669 2149" fill="none" xmlns="http://www.w3.org/2000/svg">
    <g opacity="0.1">
        <rect x="908" y="410.424" width="1200" height="1850" rx="50" transform="rotate(-20 908 410.424)" fill="black"/>
        <g filter="url(#filter0_i_240_4164)">
            <rect x="959.268" y="434.33" width="1120" height="1770" rx="35" transform="rotate(-20 959.268 434.33)" fill="#202020"/>
        </g>
        <path d="M1488.43 985.407C1461.73 995.126 1443.52 1010.82 1433.82 1032.5C1424.6 1054 1425.12 1078.83 1435.36 1106.99C1447.56 1140.49 1464.27 1163 1485.51 1174.51C1506.74 1186.03 1530.96 1186.84 1558.14 1176.94C1584.85 1167.22 1602.54 1150.88 1611.23 1127.93C1620.41 1104.79 1619.07 1076.96 1607.23 1044.43C1597.34 1017.24 1581.38 998.313 1559.35 987.637C1537.32 976.961 1513.68 976.218 1488.43 985.407ZM1562.87 1269.24C1505.1 1290.27 1455.02 1290.9 1412.64 1271.14C1370.74 1251.2 1339.01 1211.61 1317.45 1152.38C1297.13 1096.55 1299.26 1045.74 1323.83 999.956C1348.71 953.511 1392.71 918.803 1455.83 895.83C1521.37 871.975 1579.02 873.26 1628.78 899.686C1679.02 925.936 1718.1 977.415 1746.02 1054.13C1822 1262.89 1780.62 1396.17 1621.86 1453.95C1595.15 1463.67 1567.17 1471.38 1537.9 1477.09C1525.55 1479.39 1513.8 1477.34 1502.68 1470.94C1491.86 1463.88 1484.24 1454.28 1479.83 1442.14L1475.05 1429.04C1471.34 1418.84 1472.56 1409.33 1478.69 1400.5C1484.64 1391.18 1493.16 1385.88 1504.24 1384.6C1534.21 1380.84 1561.09 1374.63 1584.88 1365.97C1621.78 1352.54 1646.87 1331.59 1660.15 1303.11C1673.91 1274.46 1674.43 1239.63 1661.71 1198.63C1661.53 1198.14 1661.2 1197.99 1660.71 1198.16L1659.99 1198.43C1640.4 1229.2 1608.02 1252.8 1562.87 1269.24ZM2024.33 1036.13C2001.69 1057.01 1987.17 1076.04 1980.77 1093.22C1974.69 1109.73 1974.74 1126.48 1980.92 1143.47C1988.52 1164.35 2003.29 1178.49 2025.23 1185.9C2047.17 1193.31 2071.49 1192.16 2098.2 1182.44C2124.9 1172.72 2144.03 1158.06 2155.59 1138.46C2167.63 1118.68 2169.86 1098.35 2162.26 1077.47C2155.54 1059.02 2143.51 1046.36 2126.16 1039.48C2109.12 1031.93 2078.97 1029.16 2035.71 1031.16C2031.78 1030.94 2027.99 1032.6 2024.33 1036.13ZM1962.48 809.567C1938.69 818.226 1921.88 830.944 1912.04 847.721C1902.51 863.835 1901.01 880.874 1907.55 898.838C1913.03 913.889 1923.38 924.965 1938.62 932.068C1954.33 938.993 1977.95 941.944 2009.47 940.919C2013.88 940.962 2017.76 939.549 2021.12 936.678C2059.91 902.766 2074 871.245 2063.4 842.114C2056.86 824.15 2044.52 812.148 2026.38 806.105C2008.06 799.578 1986.76 800.732 1962.48 809.567ZM2269.75 1171.13C2242.92 1212.23 2196.25 1244.89 2129.74 1269.1C2063.22 1293.31 2006.24 1298.38 1958.78 1284.31C1911.81 1270.07 1879.84 1239.64 1862.88 1193.03C1843.62 1140.11 1861.83 1085.92 1917.52 1030.47C1918.01 1030.29 1918.07 1029.72 1917.72 1028.74C1917.54 1028.26 1917.21 1028.1 1916.73 1028.28C1848.75 1016.74 1804.95 984.018 1785.33 930.127C1770.84 890.315 1776.24 851.513 1801.52 813.72C1826.63 775.442 1869.77 745.17 1930.94 722.904C1992.11 700.639 2044.62 696.099 2088.46 709.284C2132.12 721.984 2161.19 748.24 2175.68 788.052C2192.47 834.175 2176.57 883.398 2127.98 935.72C2127.5 935.897 2127.34 936.228 2127.52 936.713C2127.88 937.684 2128.29 938.081 2128.78 937.905C2209.78 941.412 2261.94 975.209 2285.27 1039.3C2302.23 1085.91 2297.06 1129.85 2269.75 1171.13Z" fill="white"/>
        <path d="M1083.12 515.102C1080.53 516.046 1077.93 515.908 1075.31 514.689C1072.7 513.47 1070.92 511.563 1069.97 508.97L1068.56 505.079C1067.61 502.486 1067.75 499.882 1068.97 497.267C1070.19 494.652 1072.1 492.873 1074.69 491.929L1137.78 468.966C1140.37 468.022 1142.98 468.16 1145.59 469.379C1148.21 470.598 1149.99 472.504 1150.93 475.098L1152.35 478.988C1154.69 485.416 1154.11 491.562 1150.63 497.428L1132.78 527.867L1132.85 528.036C1132.89 528.149 1132.96 528.185 1133.08 528.143L1135.11 527.405C1144.92 523.834 1153.86 524.026 1161.94 527.981C1170.13 531.895 1176.12 539.039 1179.89 549.413C1184.65 562.494 1184.3 573.987 1178.84 583.892C1173.38 593.798 1163.15 601.479 1148.15 606.938C1139.13 610.222 1129.61 612.475 1119.58 613.698C1116.63 614.006 1113.84 613.361 1111.22 611.762C1108.66 610.01 1106.85 607.668 1105.79 604.736L1103.69 598.985C1102.87 596.73 1103.14 594.654 1104.49 592.757C1105.92 590.706 1107.88 589.608 1110.38 589.464C1121.23 589.092 1130.26 587.592 1137.48 584.965C1144.02 582.585 1148.54 579.216 1151.04 574.858C1153.54 570.5 1153.8 565.615 1151.83 560.202C1149.82 554.677 1146.32 551.546 1141.33 550.809C1136.33 550.072 1128.12 551.72 1116.69 555.753C1114.1 556.697 1111.51 556.615 1108.94 555.509C1106.33 554.29 1104.55 552.383 1103.6 549.79L1103.48 549.451C1101.18 543.137 1101.7 537.011 1105.03 531.074L1121.47 501.527L1121.41 501.358C1121.37 501.245 1121.29 501.209 1121.18 501.25L1083.12 515.102Z" fill="white"/>
        <path d="M1903.41 216.542C1900.81 217.486 1898.21 217.348 1895.6 216.129C1892.98 214.91 1891.2 213.003 1890.26 210.41L1888.84 206.52C1887.9 203.926 1888.04 201.322 1889.25 198.707C1890.47 196.093 1892.38 194.313 1894.97 193.369L1958.06 170.406C1960.66 169.462 1963.26 169.6 1965.88 170.819C1968.49 172.038 1970.27 173.945 1971.21 176.538L1972.63 180.428C1974.97 186.856 1974.4 193.002 1970.91 198.868L1953.07 229.307L1953.13 229.476C1953.17 229.589 1953.25 229.625 1953.36 229.584L1955.39 228.845C1965.2 225.274 1974.15 225.466 1982.23 229.421C1990.42 233.335 1996.4 240.479 2000.18 250.854C2004.94 263.934 2004.59 275.427 1999.13 285.332C1993.67 295.238 1983.44 302.92 1968.44 308.378C1959.42 311.662 1949.89 313.915 1939.87 315.138C1936.92 315.446 1934.13 314.801 1931.5 313.203C1928.95 311.45 1927.14 309.108 1926.07 306.176L1923.98 300.425C1923.16 298.17 1923.42 296.094 1924.78 294.197C1926.2 292.146 1928.16 291.048 1930.66 290.904C1941.51 290.532 1950.54 289.032 1957.76 286.406C1964.3 284.025 1968.82 280.656 1971.32 276.298C1973.82 271.94 1974.09 267.055 1972.12 261.642C1970.11 256.117 1966.6 252.986 1961.61 252.249C1956.62 251.512 1948.41 253.16 1936.98 257.193C1934.38 258.137 1931.8 258.055 1929.22 256.949C1926.61 255.73 1924.83 253.823 1923.89 251.23L1923.76 250.891C1921.47 244.577 1921.98 238.451 1925.31 232.514L1941.76 202.967L1941.7 202.798C1941.66 202.685 1941.58 202.649 1941.47 202.69L1903.41 216.542Z" fill="white"/>
        <path d="M1582.47 1887.05C1579.88 1888 1577.27 1887.86 1574.66 1886.64C1572.04 1885.42 1570.27 1883.51 1569.32 1880.92L1567.91 1877.03C1566.96 1874.44 1567.1 1871.83 1568.32 1869.22C1569.54 1866.6 1571.44 1864.82 1574.04 1863.88L1637.13 1840.92C1639.72 1839.97 1642.33 1840.11 1644.94 1841.33C1647.56 1842.55 1649.33 1844.45 1650.28 1847.05L1651.69 1850.94C1654.03 1857.37 1653.46 1863.51 1649.98 1869.38L1632.13 1899.82L1632.19 1899.99C1632.23 1900.1 1632.31 1900.13 1632.42 1900.09L1634.45 1899.35C1644.26 1895.78 1653.21 1895.98 1661.29 1899.93C1669.48 1903.84 1675.47 1910.99 1679.24 1921.36C1684 1934.44 1683.65 1945.94 1678.19 1955.84C1672.73 1965.75 1662.5 1973.43 1647.5 1978.89C1638.48 1982.17 1628.96 1984.42 1618.93 1985.65C1615.98 1985.96 1613.19 1985.31 1610.57 1983.71C1608.01 1981.96 1606.2 1979.62 1605.14 1976.69L1603.04 1970.93C1602.22 1968.68 1602.49 1966.6 1603.84 1964.71C1605.26 1962.66 1607.23 1961.56 1609.73 1961.41C1620.58 1961.04 1629.61 1959.54 1636.82 1956.92C1643.36 1954.53 1647.88 1951.17 1650.38 1946.81C1652.89 1942.45 1653.15 1937.56 1651.18 1932.15C1649.17 1926.63 1645.67 1923.5 1640.67 1922.76C1635.68 1922.02 1627.47 1923.67 1616.04 1927.7C1613.45 1928.65 1610.86 1928.57 1608.29 1927.46C1605.67 1926.24 1603.89 1924.33 1602.95 1921.74L1602.83 1921.4C1600.53 1915.09 1601.04 1908.96 1604.38 1903.02L1620.82 1873.48L1620.76 1873.31C1620.72 1873.19 1620.64 1873.16 1620.53 1873.2L1582.47 1887.05Z" fill="white"/>
        <path d="M2402.76 1588.49C2400.16 1589.44 2397.56 1589.3 2394.94 1588.08C2392.33 1586.86 2390.55 1584.95 2389.61 1582.36L2388.19 1578.47C2387.25 1575.88 2387.38 1573.27 2388.6 1570.66C2389.82 1568.04 2391.73 1566.26 2394.32 1565.32L2457.41 1542.36C2460.01 1541.41 2462.61 1541.55 2465.23 1542.77C2467.84 1543.99 2469.62 1545.89 2470.56 1548.49L2471.98 1552.38C2474.32 1558.81 2473.75 1564.95 2470.26 1570.82L2452.42 1601.26L2452.48 1601.43C2452.52 1601.54 2452.6 1601.57 2452.71 1601.53L2454.74 1600.79C2464.55 1597.22 2473.49 1597.42 2481.57 1601.37C2489.77 1605.28 2495.75 1612.43 2499.53 1622.8C2504.29 1635.88 2503.94 1647.38 2498.48 1657.28C2493.02 1667.19 2482.79 1674.87 2467.79 1680.33C2458.77 1683.61 2449.24 1685.86 2439.22 1687.09C2436.26 1687.4 2433.48 1686.75 2430.85 1685.15C2428.3 1683.4 2426.49 1681.06 2425.42 1678.13L2423.33 1672.38C2422.51 1670.12 2422.77 1668.04 2424.12 1666.15C2425.55 1664.1 2427.51 1663 2430.01 1662.85C2440.86 1662.48 2449.89 1660.98 2457.11 1658.36C2463.65 1655.97 2468.17 1652.61 2470.67 1648.25C2473.17 1643.89 2473.44 1639 2471.47 1633.59C2469.45 1628.07 2465.95 1624.94 2460.96 1624.2C2455.97 1623.46 2447.75 1625.11 2436.32 1629.14C2433.73 1630.09 2431.15 1630.01 2428.57 1628.9C2425.96 1627.68 2424.18 1625.77 2423.24 1623.18L2423.11 1622.84C2420.81 1616.53 2421.33 1610.4 2424.66 1604.46L2441.11 1574.92L2441.04 1574.75C2441 1574.63 2440.93 1574.6 2440.81 1574.64L2402.76 1588.49Z" fill="white"/>
    </g>
    <g opacity="0.1">
        <rect x="128.991" y="478" width="960.001" height="1480" rx="40" transform="rotate(4.99999 128.991 478)" fill="black"/>
        <g filter="url(#filter1_i_240_4164)">
            <rect x="158.08" y="512.668" width="896.001" height="1416" rx="28" transform="rotate(4.99999 158.08 512.668)" fill="#202020"/>
        </g>
        <path d="M234.289 1193.96C228.129 1197.99 221.898 1198.06 215.598 1194.19C209.71 1190.36 207.09 1184.74 207.738 1177.32L211.683 1132.24C213.737 1108.77 224.828 1091.07 244.958 1079.13L311.338 1038.89C331.056 1026.92 352.856 1021.98 376.739 1024.07L415.65 1027.47C425.121 1028.3 433.05 1032.52 439.437 1040.14C445.825 1047.75 448.604 1056.29 447.775 1065.76L414.489 1446.23C413.66 1455.7 409.44 1463.63 401.828 1470.01C394.215 1476.4 385.674 1479.18 376.203 1478.35L337.292 1474.95C327.821 1474.12 319.892 1469.9 313.505 1462.29C307.117 1454.67 304.338 1446.13 305.166 1436.66L331.428 1136.49L330.811 1136.44L330.193 1136.38L234.289 1193.96ZM757.517 1127.71C734.87 1125.73 716.364 1130.96 701.999 1143.39C688.046 1155.86 680.024 1174.04 677.935 1197.92C675.449 1226.33 679.958 1248.3 691.462 1263.83C702.966 1279.36 720.247 1288.13 743.305 1290.15C765.952 1292.13 784.306 1286.27 798.368 1272.56C812.841 1258.89 821.285 1238.26 823.698 1210.68C825.716 1187.62 820.543 1168.49 808.179 1153.3C795.816 1138.12 778.929 1129.58 757.517 1127.71ZM715.528 1358.67C666.528 1354.38 630.005 1337.91 605.958 1309.25C582.322 1280.63 572.702 1241.2 577.097 1190.97C581.24 1143.62 599.959 1107.5 633.255 1082.61C666.998 1057.35 710.635 1047.06 764.164 1051.74C819.751 1056.61 861.115 1077.03 888.256 1113.01C915.808 1149.03 926.738 1199.57 921.047 1264.63C905.556 1441.68 830.488 1524.32 695.842 1512.54C673.195 1510.56 650.299 1506.69 627.153 1500.93C617.415 1498.42 609.594 1492.96 603.69 1484.56C598.234 1475.79 595.956 1466.25 596.857 1455.96L597.83 1444.84C598.586 1436.19 602.681 1429.71 610.113 1425.38C617.581 1420.64 625.549 1419.67 634.015 1422.49C657.017 1429.9 678.607 1434.48 698.783 1436.25C730.077 1438.98 755.351 1432.28 774.606 1416.12C794.272 1400 806.424 1374.92 811.061 1340.89C811.097 1340.48 810.909 1340.25 810.498 1340.22L809.88 1340.16C785.272 1355.85 753.822 1362.02 715.528 1358.67Z" fill="white"/>
        <path d="M220.049 635.608C218.618 636.543 217.171 636.561 215.708 635.662C214.34 634.771 213.732 633.465 213.883 631.744L214.799 621.272C215.276 615.821 217.852 611.709 222.527 608.938L237.945 599.59C242.524 596.811 247.587 595.664 253.134 596.149L262.172 596.94C264.371 597.132 266.213 598.113 267.696 599.881C269.18 601.649 269.826 603.632 269.633 605.832L261.902 694.199C261.71 696.398 260.729 698.24 258.961 699.723C257.193 701.207 255.21 701.852 253.01 701.66L243.972 700.869C241.773 700.677 239.931 699.697 238.448 697.929C236.964 696.161 236.319 694.177 236.511 691.977L242.611 622.259L242.467 622.247L242.324 622.234L220.049 635.608ZM341.573 620.221C336.313 619.761 332.015 620.975 328.679 623.863C325.438 626.759 323.575 630.981 323.09 636.528C322.512 643.127 323.559 648.229 326.231 651.836C328.903 655.443 332.917 657.48 338.272 657.949C343.532 658.409 347.795 657.047 351.061 653.864C354.423 650.689 356.384 645.897 356.944 639.49C357.413 634.134 356.211 629.693 353.34 626.165C350.468 622.637 346.546 620.656 341.573 620.221ZM331.821 673.863C320.44 672.867 311.957 669.041 306.372 662.385C300.883 655.738 298.648 646.58 299.669 634.913C300.631 623.915 304.979 615.526 312.712 609.746C320.549 603.878 330.684 601.488 343.117 602.576C356.028 603.706 365.635 608.449 371.938 616.806C378.338 625.172 380.876 636.91 379.554 652.02C375.956 693.143 358.521 712.337 327.249 709.601C321.989 709.14 316.671 708.241 311.295 706.904C309.033 706.32 307.217 705.053 305.846 703.102C304.578 701.064 304.049 698.85 304.259 696.459L304.484 693.877C304.66 691.868 305.611 690.361 307.337 689.356C309.072 688.255 310.922 688.031 312.889 688.685C318.231 690.406 323.246 691.471 327.932 691.881C335.2 692.516 341.07 690.958 345.542 687.206C350.11 683.462 352.932 677.637 354.009 669.733C354.018 669.637 353.974 669.585 353.878 669.577L353.735 669.565C348.019 673.208 340.715 674.641 331.821 673.863Z" fill="white"/>
        <path d="M822.436 688.309C821.005 689.244 819.558 689.262 818.095 688.363C816.727 687.473 816.119 686.167 816.269 684.445L817.186 673.973C817.662 668.522 820.239 664.411 824.914 661.64L840.331 652.292C844.911 649.512 849.974 648.365 855.521 648.851L864.559 649.641C866.758 649.834 868.6 650.814 870.083 652.582C871.567 654.35 872.212 656.334 872.02 658.534L864.289 746.9C864.096 749.1 863.116 750.941 861.348 752.425C859.58 753.908 857.596 754.554 855.397 754.361L846.359 753.571C844.16 753.378 842.318 752.398 840.834 750.63C839.351 748.862 838.705 746.878 838.898 744.679L844.997 674.961L844.854 674.948L844.71 674.936L822.436 688.309ZM943.96 672.922C938.7 672.462 934.402 673.676 931.065 676.564C927.825 679.461 925.962 683.683 925.476 689.229C924.899 695.828 925.946 700.931 928.618 704.537C931.29 708.144 935.304 710.182 940.659 710.65C945.919 711.11 950.182 709.749 953.448 706.565C956.809 703.39 958.77 698.599 959.331 692.191C959.8 686.836 958.598 682.394 955.727 678.866C952.855 675.339 948.933 673.357 943.96 672.922ZM934.208 726.564C922.827 725.569 914.344 721.743 908.759 715.087C903.27 708.439 901.035 699.281 902.056 687.614C903.018 676.616 907.366 668.227 915.099 662.447C922.936 656.58 933.071 654.19 945.504 655.278C958.414 656.407 968.021 661.151 974.325 669.508C980.724 677.873 983.263 689.611 981.941 704.722C978.343 745.844 960.908 765.038 929.635 762.302C924.376 761.842 919.058 760.943 913.682 759.605C911.42 759.022 909.603 757.755 908.232 755.804C906.965 753.766 906.436 751.551 906.645 749.16L906.871 746.578C907.047 744.57 907.998 743.063 909.724 742.058C911.459 740.957 913.309 740.733 915.276 741.387C920.618 743.107 925.632 744.172 930.318 744.582C937.587 745.218 943.457 743.66 947.929 739.907C952.497 736.163 955.319 730.339 956.396 722.435C956.404 722.339 956.361 722.287 956.265 722.279L956.122 722.266C950.406 725.91 943.102 727.343 934.208 726.564Z" fill="white"/>
        <path d="M118.774 1776.66C116.575 1776.47 114.733 1775.49 113.25 1773.72C111.766 1771.95 111.121 1769.97 111.313 1767.77L111.602 1764.47C111.794 1762.27 112.774 1760.43 114.542 1758.94C116.31 1757.46 118.294 1756.81 120.494 1757.01L174.001 1761.69C176.201 1761.88 178.043 1762.86 179.526 1764.63C181.01 1766.4 181.655 1768.38 181.463 1770.58L181.174 1773.88C180.697 1779.33 178.204 1783.59 173.695 1786.67L150.465 1802.7L150.453 1802.85C150.444 1802.94 150.488 1803 150.583 1803L152.305 1803.15C160.625 1803.88 167.046 1807.05 171.567 1812.65C176.184 1818.25 178.107 1825.46 177.338 1834.25C176.367 1845.35 172.227 1853.56 164.918 1858.9C157.61 1864.23 147.596 1866.34 134.876 1865.23C127.225 1864.56 119.558 1862.98 111.875 1860.47C109.63 1859.7 107.826 1858.29 106.464 1856.24C105.205 1854.11 104.684 1851.8 104.902 1849.31L105.328 1844.43C105.496 1842.52 106.39 1841.1 108.013 1840.19C109.739 1839.18 111.533 1839.05 113.396 1839.79C121.386 1843.19 128.441 1845.15 134.562 1845.69C140.109 1846.18 144.525 1845.26 147.812 1842.95C151.098 1840.63 152.942 1837.18 153.343 1832.59C153.753 1827.9 152.273 1824.45 148.902 1822.23C145.531 1820 139.02 1818.42 129.369 1817.48C127.169 1817.29 125.323 1816.36 123.832 1814.68C122.348 1812.92 121.702 1810.93 121.895 1808.73L121.92 1808.45C122.389 1803.09 124.834 1798.82 129.256 1795.64L151.17 1779.78L151.182 1779.64C151.19 1779.54 151.147 1779.49 151.051 1779.48L118.774 1776.66Z" fill="white"/>
        <path d="M814.461 1837.53C812.262 1837.33 810.42 1836.35 808.937 1834.58C807.453 1832.82 806.807 1830.83 807 1828.63L807.289 1825.33C807.481 1823.13 808.461 1821.29 810.229 1819.81C811.997 1818.33 813.981 1817.68 816.181 1817.87L869.688 1822.55C871.888 1822.75 873.73 1823.73 875.213 1825.49C876.697 1827.26 877.342 1829.25 877.15 1831.45L876.861 1834.75C876.384 1840.2 873.891 1844.46 869.382 1847.53L846.152 1863.57L846.139 1863.71C846.131 1863.81 846.175 1863.86 846.27 1863.87L847.992 1864.02C856.312 1864.75 862.733 1867.91 867.254 1873.51C871.871 1879.12 873.794 1886.32 873.024 1895.12C872.054 1906.21 867.914 1914.43 860.605 1919.76C853.297 1925.1 843.282 1927.21 830.563 1926.1C822.912 1925.43 815.245 1923.84 807.562 1921.34C805.317 1920.56 803.513 1919.15 802.15 1917.11C800.892 1914.97 800.371 1912.66 800.589 1910.18L801.015 1905.3C801.183 1903.39 802.077 1901.97 803.7 1901.05C805.426 1900.05 807.22 1899.92 809.083 1900.66C817.073 1904.05 824.128 1906.02 830.249 1906.56C835.796 1907.04 840.212 1906.13 843.499 1903.81C846.785 1901.5 848.629 1898.05 849.03 1893.45C849.44 1888.77 847.96 1885.31 844.589 1883.09C841.217 1880.87 834.706 1879.29 825.056 1878.35C822.856 1878.16 821.01 1877.22 819.518 1875.55C818.035 1873.78 817.389 1871.8 817.582 1869.6L817.607 1869.31C818.075 1863.96 820.521 1859.69 824.942 1856.51L846.856 1840.65L846.869 1840.5C846.877 1840.41 846.834 1840.36 846.738 1840.35L814.461 1837.53Z" fill="white"/>
    </g>
    <defs>
        <filter id="filter0_i_240_4164" x="969.119" y="61.1182" width="1638.13" height="2026.62" filterUnits="userSpaceOnUse" color-interpolation-filters="sRGB">
            <feFlood flood-opacity="0" result="BackgroundImageFix"/>
            <feBlend mode="normal" in="SourceGraphic" in2="BackgroundImageFix" result="shape"/>
            <feColorMatrix in="SourceAlpha" type="matrix" values="0 0 0 0 0 0 0 0 0 0 0 0 0 0 0 0 0 0 127 0" result="hardAlpha"/>
            <feMorphology radius="20" operator="erode" in="SourceAlpha" result="effect1_innerShadow_240_4164"/>
            <feOffset/>
            <feGaussianBlur stdDeviation="25"/>
            <feComposite in2="hardAlpha" operator="arithmetic" k2="-1" k3="1"/>
            <feColorMatrix type="matrix" values="0 0 0 0 0.596078 0 0 0 0 0.556863 0 0 0 0 0.843137 0 0 0 1 0"/>
            <feBlend mode="normal" in2="shape" result="effect1_innerShadow_240_4164"/>
        </filter>
        <filter id="filter1_i_240_4164" x="36.9998" y="515" width="1011.34" height="1484.04" filterUnits="userSpaceOnUse" color-interpolation-filters="sRGB">
            <feFlood flood-opacity="0" result="BackgroundImageFix"/>
            <feBlend mode="normal" in="SourceGraphic" in2="BackgroundImageFix" result="shape"/>
            <feColorMatrix in="SourceAlpha" type="matrix" values="0 0 0 0 0 0 0 0 0 0 0 0 0 0 0 0 0 0 127 0" result="hardAlpha"/>
            <feMorphology radius="16" operator="erode" in="SourceAlpha" result="effect1_innerShadow_240_4164"/>
            <feOffset/>
            <feGaussianBlur stdDeviation="20"/>
            <feComposite in2="hardAlpha" operator="arithmetic" k2="-1" k3="1"/>
            <feColorMatrix type="matrix" values="0 0 0 0 0.74902 0 0 0 0 0.443137 0 0 0 0 0.376471 0 0 0 1 0"/>
            <feBlend mode="normal" in2="shape" result="effect1_innerShadow_240_4164"/>
        </filter>
    </defs>
</svg>
